<?xml version="1.0" encoding="utf-8"?>
<!-- Generator: Adobe Illustrator 15.0.0, SVG Export Plug-In . SVG Version: 6.00 Build 0)  -->
<!DOCTYPE svg PUBLIC "-//W3C//DTD SVG 1.1//EN" "http://www.w3.org/Graphics/SVG/1.1/DTD/svg11.dtd">
<svg version="1.1" xmlns="http://www.w3.org/2000/svg" xmlns:xlink="http://www.w3.org/1999/xlink" x="0px" y="0px" width="650px"
	 height="1000px" viewBox="0 0 650 1000" enable-background="new 0 0 650 1000" xml:space="preserve">
<g id="design">
	<g>
		<path d="M1108.584,815.997c-69.642,0-135.116-27.12-184.361-76.365c-49.245-49.245-76.365-114.719-76.365-184.361
			c0-69.642,27.12-135.116,76.365-184.361c49.244-49.245,114.718-76.365,184.361-76.365s135.117,27.12,184.361,76.365
			c49.245,49.245,76.365,114.719,76.365,184.361c0,69.643-27.12,135.116-76.365,184.361
			C1243.701,788.877,1178.227,815.997,1108.584,815.997z M1108.584,328.545c-125.017,0-226.726,101.708-226.726,226.726
			c0,125.018,101.709,226.727,226.726,226.727s226.726-101.709,226.726-226.727C1335.311,430.253,1233.602,328.545,1108.584,328.545
			z"/>
	</g>
	<g>
		<path d="M262.039,815.997c-69.642,0-135.116-27.12-184.361-76.365C28.433,690.387,1.313,624.913,1.313,555.271
			c0-69.642,27.12-135.116,76.365-184.361c49.245-49.245,114.719-76.365,184.361-76.365c69.643,0,135.117,27.12,184.361,76.365
			c49.245,49.245,76.365,114.719,76.365,184.361c0,69.643-27.12,135.116-76.365,184.361S331.681,815.997,262.039,815.997z
			 M262.039,328.545c-125.017,0-226.726,101.708-226.726,226.726c0,125.018,101.709,226.727,226.726,226.727
			s226.726-101.709,226.726-226.727C488.764,430.253,387.056,328.545,262.039,328.545z"/>
	</g>
	<g>
		<path d="M2395.027,815.997c-69.643,0-135.117-27.12-184.361-76.365c-49.245-49.245-76.365-114.719-76.365-184.361
			c0-69.642,27.12-135.116,76.365-184.361c49.245-49.245,114.719-76.365,184.361-76.365c69.642,0,135.116,27.12,184.36,76.365
			c49.245,49.245,76.365,114.719,76.365,184.361c0,69.642-27.12,135.116-76.365,184.361
			C2530.143,788.877,2464.669,815.997,2395.027,815.997z M2395.027,328.545c-125.018,0-226.727,101.708-226.727,226.726
			c0,125.018,101.709,226.727,226.727,226.727c125.017,0,226.726-101.709,226.726-226.727
			C2621.753,430.253,2520.044,328.545,2395.027,328.545z"/>
	</g>
	<g>
		<path d="M632.992,809.199H493.736V314.135c0-9.389,7.611-17,17-17s17,7.611,17,17v461.064h105.256c9.389,0,17,7.611,17,17
			S642.381,809.199,632.992,809.199z"/>
	</g>
	<g>
		<path d="M875.583,809.199H736.326c-9.389,0-17-7.611-17-17s7.611-17,17-17h105.257v-618H737.522c-9.389,0-17-7.611-17-17
			s7.611-17,17-17h138.061V809.199z"/>
	</g>
	<g>
		<path d="M1770.451,815.997c-69.642,0-135.116-27.12-184.361-76.365c-49.245-49.244-76.365-114.719-76.365-184.361
			c0-69.643,27.12-135.117,76.365-184.361c49.244-49.245,114.718-76.365,184.36-76.365c69.642,0,135.116,27.12,184.361,76.365
			c6.639,6.639,6.639,17.403,0,24.042c-6.639,6.64-17.403,6.639-24.042,0c-42.824-42.823-99.76-66.407-160.32-66.407
			c-60.561,0-117.497,23.583-160.319,66.406c-42.823,42.822-66.407,99.758-66.407,160.319c0,60.561,23.583,117.497,66.407,160.32
			c42.823,42.822,99.758,66.406,160.319,66.406c60.56,0,117.496-23.584,160.32-66.406c6.639-6.64,17.403-6.64,24.042,0
			c6.639,6.639,6.639,17.402,0,24.041C1905.567,788.877,1840.093,815.997,1770.451,815.997z"/>
	</g>
	<g>
		<path d="M7242.412,809.199h-139.257c-9.389,0-17-7.611-17-17s7.611-17,17-17h105.257v-618h-104.061c-9.389,0-17-7.611-17-17
			s7.611-17,17-17h138.061V809.199z"/>
	</g>
	<g>
		<path d="M8109.783,809.199c-9.389,0-17-7.611-17-17v-635h-104.061c-9.389,0-17-7.611-17-17s7.611-17,17-17h138.061v669
			C8126.783,801.588,8119.172,809.199,8109.783,809.199z"/>
	</g>
	<g>
		<path d="M6017.62,809.199c-9.389,0-17-7.611-17-17V329.83h-180.224c-9.389,0-17-7.611-17-17s7.611-17,17-17h214.224v496.37
			C6034.62,801.588,6027.009,809.199,6017.62,809.199z"/>
	</g>
	<g>
		<path d="M5103.592,809.199h-139.257c-9.389,0-17-7.611-17-17s7.611-17,17-17h105.257v-618h-104.061c-9.389,0-17-7.611-17-17
			s7.611-17,17-17h138.061V809.199z"/>
	</g>
	<g>
		<path d="M3162.002,815.997c-69.642,0-135.116-27.12-184.36-76.365c-49.245-49.245-76.365-114.719-76.365-184.361
			c0-69.642,27.12-135.116,76.365-184.361c49.244-49.245,114.718-76.365,184.36-76.365c30.236,0,59.873,5.134,88.088,15.261
			c27.265,9.786,52.581,23.994,75.245,42.229c45.379,36.513,77.577,87.698,90.66,144.125c2.121,9.146-3.574,18.28-12.721,20.401
			c-9.147,2.116-18.28-3.575-20.4-12.721c-23.931-103.211-114.757-175.295-220.872-175.295
			c-125.017,0-226.726,101.708-226.726,226.726c0,125.018,101.709,226.727,226.726,226.727c64.271,0,125.779-27.448,168.752-75.306
			c6.273-6.987,17.021-7.563,24.007-1.292c6.986,6.273,7.564,17.021,1.292,24.007c-24.218,26.972-53.158,48.241-86.016,63.22
			C3236.018,808.134,3199.669,815.997,3162.002,815.997z"/>
	</g>
	<g>
		<path d="M4487.858,815.997c-69.642,0-135.116-27.12-184.361-76.365s-76.365-114.719-76.365-184.361
			c0-69.642,27.12-135.116,76.365-184.361s114.719-76.365,184.361-76.365c69.643,0,135.117,27.12,184.361,76.365
			c49.245,49.245,76.365,114.719,76.365,184.361c0,69.643-27.12,135.116-76.365,184.361
			C4622.975,788.877,4557.5,815.997,4487.858,815.997z M4487.858,328.545c-125.017,0-226.726,101.708-226.726,226.726
			c0,125.018,101.708,226.727,226.726,226.727c125.018,0,226.727-101.709,226.727-226.727
			C4714.584,430.253,4612.875,328.545,4487.858,328.545z"/>
	</g>
	<g>
		<path d="M2766.315,809.199h-139.257v-686h138.061c9.389,0,17,7.611,17,17s-7.611,17-17,17h-104.061v618h105.257
			c9.389,0,17,7.611,17,17S2775.704,809.199,2766.315,809.199z"/>
	</g>
	<g>
		<path d="M3550.821,329.396c-9.375,0-16.982-7.59-17-16.969c-0.017-9.389,7.58-17.014,16.969-17.031l465.759-0.851
			c0.01,0,0.021,0,0.031,0c9.375,0,16.982,7.59,17,16.969c0.017,9.389-7.58,17.014-16.969,17.031l-465.759,0.851
			C3550.843,329.396,3550.832,329.396,3550.821,329.396z"/>
	</g>
	<g>
		<path d="M3675.284,809.199c-9.389,0-17-7.611-17-17v-669h508.097c9.389,0,17,7.611,17,17s-7.611,17-17,17h-474.097v635
			C3692.284,801.588,3684.673,809.199,3675.284,809.199z"/>
	</g>
	<g>
		<path d="M4752.84,999.993h-340.098c-9.389,0-17-7.611-17-17s7.611-17,17-17h306.098v-670.05h139.575c9.389,0,17,7.611,17,17
			s-7.611,17-17,17H4752.84V999.993z"/>
	</g>
	<g>
		<path d="M11066.674,812.994c-69.241,0-134.338-26.964-183.299-75.926c-48.962-48.961-75.926-114.058-75.926-183.299
			c0-69.242,26.964-134.338,75.926-183.3c48.961-48.961,114.058-75.925,183.299-75.925s134.339,26.964,183.3,75.925
			c48.961,48.961,75.925,114.058,75.925,183.3c0,69.241-26.964,134.338-75.925,183.299
			C11201.013,786.03,11135.915,812.994,11066.674,812.994z M11066.674,328.545c-124.189,0-225.225,101.035-225.225,225.225
			s101.035,225.225,225.225,225.225s225.225-101.035,225.225-225.225S11190.863,328.545,11066.674,328.545z"/>
	</g>
	<g>
		<path d="M10824.449,998.011c-9.389,0-17-7.611-17-17V330h-107.851c-9.389,0-17-7.611-17-17s7.611-17,17-17h141.851v685.011
			C10841.449,990.399,10833.838,998.011,10824.449,998.011z"/>
	</g>
	<g>
		<path d="M11664.187,815.997c-69.642,0-135.116-27.12-184.36-76.365c-49.245-49.245-76.365-114.719-76.365-184.361
			c0-69.642,27.12-135.116,76.365-184.361c49.244-49.245,114.718-76.365,184.36-76.365s135.117,27.12,184.361,76.365
			c49.245,49.245,76.365,114.719,76.365,184.361c0,69.643-27.12,135.116-76.365,184.361S11733.829,815.997,11664.187,815.997z
			 M11664.187,328.545c-125.017,0-226.726,101.708-226.726,226.726c0,125.018,101.709,226.727,226.726,226.727
			c125.018,0,226.727-101.709,226.727-226.727C11890.913,430.253,11789.204,328.545,11664.187,328.545z"/>
	</g>
	<g>
		<path d="M11907.913,996.312c-9.389,0-17-7.611-17-17V296h144.399c9.389,0,17,7.611,17,17s-7.611,17-17,17h-110.399v649.312
			C11924.913,988.7,11917.302,996.312,11907.913,996.312z"/>
	</g>
	<g>
		<path d="M6309.167,809.199h-615.85c-9.389,0-17-7.611-17-17s7.611-17,17-17h615.85c9.389,0,17,7.611,17,17
			S6318.556,809.199,6309.167,809.199z"/>
	</g>
	<g>
		<path d="M8417.371,809.199h-613.904c-9.389,0-17-7.611-17-17s7.611-17,17-17h613.904c9.389,0,17,7.611,17,17
			S8426.76,809.199,8417.371,809.199z"/>
	</g>
	<g>
		<path d="M10588.281,329.716h-614.749c-9.389,0-17-7.611-17-17s7.611-17,17-17h614.749c9.389,0,17,7.611,17,17
			S10597.67,329.716,10588.281,329.716z"/>
	</g>
	<g>
		<path d="M6019.462,258.567c-9.389,0-17-7.611-17-17V140.767c0-9.389,7.611-17,17-17s17,7.611,17,17v100.801
			C6036.462,250.956,6028.851,258.567,6019.462,258.567z"/>
	</g>
	<g>
		<path d="M6738.613,999.993h-333.839c-9.389,0-17-7.611-17-17s7.611-17,17-17h299.839V329.546h-181.929c-9.389,0-17-7.611-17-17
			s7.611-17,17-17h215.929V999.993z"/>
	</g>
	<g>
		<path d="M6720.901,258c-9.389,0-17-7.611-17-17V140.199c0-9.389,7.611-17,17-17s17,7.611,17,17V241
			C6737.901,250.389,6730.29,258,6720.901,258z"/>
	</g>
	<g>
		<path d="M3839.621,808.917h-297c-9.389,0-17-7.611-17-17s7.611-17,17-17h297c9.389,0,17,7.611,17,17
			S3849.01,808.917,3839.621,808.917z"/>
	</g>
	<g>
		<path d="M14042.536,329.396h-465.759c-9.389,0-17-7.611-17-17s7.611-17,17-17h465.759c9.389,0,17,7.611,17,17
			S14051.925,329.396,14042.536,329.396z"/>
	</g>
	<g>
		<path d="M13705.484,809.199c-9.389,0-17-7.611-17-17v-652c0-9.389,7.611-17,17-17s17,7.611,17,17v652
			C13722.484,801.588,13714.873,809.199,13705.484,809.199z"/>
	</g>
	<g>
		<path d="M13928.506,809.2h-352.004c-9.389,0-17-7.611-17-17s7.611-17,17-17h349.31l260.912-84.847
			c8.929-2.901,18.52,1.98,21.424,10.91c2.903,8.928-1.981,18.52-10.91,21.424l-263.475,85.68
			C13932.065,808.919,13930.291,809.2,13928.506,809.2z"/>
	</g>
	<g>
		<path d="M5440.001,788.792c-9.389,0-17-7.611-17-17V552.6c0-125.017-104.995-226.726-234.051-226.726h-83.938
			c-9.389,0-17-7.611-17-17s7.611-17,17-17h83.938c71.504,0,138.754,27.058,189.361,76.188
			c50.744,49.263,78.689,114.8,78.689,184.538v219.192C5457.001,781.181,5449.39,788.792,5440.001,788.792z"/>
	</g>
	<g>
		<path d="M5579.712,808.634h-293.88c-9.389,0-17-7.611-17-17s7.611-17,17-17h293.88c9.389,0,17,7.611,17,17
			S5589.101,808.634,5579.712,808.634z"/>
	</g>
	<g>
		<path d="M8663.522,329.833h-121.062c-9.389,0-17-7.611-17-17s7.611-17,17-17h121.062c9.389,0,17,7.611,17,17
			S8672.911,329.833,8663.522,329.833z"/>
	</g>
	<g>
		<path d="M8663.522,809.199h-122.257c-9.389,0-17-7.611-17-17s7.611-17,17-17h122.257c9.389,0,17,7.611,17,17
			S8672.911,809.199,8663.522,809.199z"/>
	</g>
	<g>
		<g>
			<path d="M9081.621,809.183c-9.389,0-17-7.611-17-17V555.998c0-125.014-104.995-226.72-234.051-226.72c-9.389,0-17-7.611-17-17
				s7.611-17,17-17c71.504,0,138.754,27.057,189.361,76.187c50.744,49.263,78.689,114.797,78.689,184.533v236.185
				C9098.621,801.571,9091.01,809.183,9081.621,809.183z"/>
		</g>
		<g>
			<path d="M9159.763,815.997h-297.001c-9.389,0-17-7.611-17-17s7.611-17,17-17h297.001c9.389,0,17,7.611,17,17
				S9169.151,815.997,9159.763,815.997z"/>
		</g>
	</g>
	<g>
		<path d="M9395.932,809.199h-139.257c-9.389,0-17-7.611-17-17s7.611-17,17-17h105.257V329.833H9257.87c-9.389,0-17-7.611-17-17
			s7.611-17,17-17h138.062V809.199z"/>
	</g>
	<g>
		<path d="M9797.03,799.271c-9.389,0-17-7.611-17-17V559.396c0-126.575-104.995-229.551-234.051-229.551l-167.052-0.028
			c-9.389-0.001-16.999-7.614-16.997-17.003c0.002-9.388,7.612-16.997,17-16.997c0.001,0,0.002,0,0.003,0l167.049,0.028
			c71.375,0,138.659,27.594,189.455,77.7c24.604,24.269,43.939,52.465,57.472,83.807c14.015,32.46,21.121,66.793,21.121,102.044
			v222.874C9814.03,791.659,9806.419,799.271,9797.03,799.271z"/>
	</g>
	<g>
		<path d="M12674.428,512.95c-9.389,0-17-7.611-17-17c0-41.228-24.5-83.025-67.218-114.675
			c-45.503-33.714-105.154-52.281-167.966-52.281h-280.436c-9.389,0-17-7.611-17-17s7.611-17,17-17h280.436
			c70.049,0,136.889,20.94,188.207,58.962c51.462,38.129,80.977,89.883,80.977,141.994
			C12691.428,505.339,12683.816,512.95,12674.428,512.95z"/>
	</g>
	<g>
		<path d="M9875.172,809.2h-297.001c-9.389,0-17-7.611-17-17s7.611-17,17-17h297.001c9.389,0,17,7.611,17,17
			S9884.561,809.2,9875.172,809.2z"/>
	</g>
	<g>
		<path d="M14861.193,809.85h-138.062V329.637h-115.863c-9.389,0-17-7.611-17-17s7.611-17,17-17h149.863V775.85h104.062
			c9.389,0,17,7.611,17,17S14870.582,809.85,14861.193,809.85z"/>
	</g>
	<g>
		<path d="M14740.133,809.838h-167.049c-71.505,0-138.755-27.058-189.361-76.188c-50.744-49.264-78.689-114.8-78.689-184.538
			V331.343h-59.333c-9.389,0-17-7.611-17-17s7.611-17,17-17h93.333v251.769c0,125.017,104.995,226.726,234.051,226.726h167.049
			c9.389,0,17,7.611,17,17S14749.521,809.838,14740.133,809.838z"/>
	</g>
	<g>
		<path d="M10588.489,809.2h-615.166c-9.389,0-17-7.611-17-17s7.611-17,17-17h615.166c9.389,0,17,7.611,17,17
			S10597.878,809.2,10588.489,809.2z"/>
	</g>
	<g>
		<path d="M12440.702,809.483h-298.983c-9.389,0-17-7.611-17-17s7.611-17,17-17h298.983c9.389,0,17,7.611,17,17
			S12450.091,809.483,12440.702,809.483z"/>
	</g>
	<g>
		<path d="M15531.417,329.313c-0.007,0-0.013,0-0.021,0l-240.614-0.284c-9.389-0.011-16.99-7.631-16.979-17.02
			c0.011-9.382,7.62-16.98,17-16.98c0.007,0,0.014,0,0.021,0l240.614,0.284c9.389,0.011,16.99,7.631,16.979,17.02
			C15548.406,321.715,15540.797,329.313,15531.417,329.313z"/>
	</g>
	<g>
		<path d="M15157.266,329.313h-240.614c-9.389,0-17-7.611-17-17s7.611-17,17-17h240.614c9.389,0,17,7.611,17,17
			S15166.654,329.313,15157.266,329.313z"/>
	</g>
	<g>
		<path d="M12756.363,517.383h-209.129c-9.389,0-17-7.61-17-17c0-9.389,7.611-17,17-17h209.129c9.389,0,17,7.611,17,17
			C12773.363,509.772,12765.752,517.383,12756.363,517.383z"/>
	</g>
	<g>
		<path d="M13079.158,1510h-211.961c-9.389,0-17-7.611-17-17s7.611-17,17-17h211.961c9.389,0,17,7.611,17,17
			S13088.547,1510,13079.158,1510z"/>
	</g>
	<g>
		<path d="M13482.248,1510h-211.961c-9.389,0-17-7.611-17-17s7.611-17,17-17h211.961c9.389,0,17,7.611,17,17
			S13491.637,1510,13482.248,1510z"/>
	</g>
	<g>
		<path d="M13077.742,2011.738h-211.961c-9.389,0-17-7.611-17-17s7.611-17,17-17h211.961c9.389,0,17,7.611,17,17
			S13087.131,2011.738,13077.742,2011.738z"/>
	</g>
	<g>
		<path d="M13482.248,2011.738h-211.961c-9.389,0-17-7.611-17-17s7.611-17,17-17h211.961c9.389,0,17,7.611,17,17
			S13491.637,2011.738,13482.248,2011.738z"/>
	</g>
	<g>
		<path d="M12261.378,807.783c-9.389,0-17-7.611-17-17V314.548c0-9.389,7.611-17,17-17s17,7.611,17,17v476.235
			C12278.378,800.172,12270.767,807.783,12261.378,807.783z"/>
	</g>
	<g>
		<path d="M10996.239,999.99h-297.001c-9.389,0-17-7.611-17-17s7.611-17,17-17h297.001c9.389,0,17,7.611,17,17
			S11005.628,999.99,10996.239,999.99z"/>
	</g>
	<g>
		<path d="M12035.429,999.99h-297.567c-9.389,0-17-7.611-17-17s7.611-17,17-17h297.567c9.389,0,17,7.611,17,17
			S12044.817,999.99,12035.429,999.99z"/>
	</g>
	<g>
		<path d="M7719.139,809.2h-297c-9.389,0-17-7.611-17-17s7.611-17,17-17h297c9.389,0,17,7.611,17,17S7728.528,809.2,7719.139,809.2z
			"/>
	</g>
	<g>
		<path d="M7521.128,329.149h-219.269c-9.389,0-17-7.611-17-17s7.611-17,17-17h219.269c9.389,0,17,7.611,17,17
			S7530.517,329.149,7521.128,329.149z"/>
	</g>
	<g>
		<path d="M7524.415,808.182c-4.368,0-8.734-1.672-12.057-5.015l-289.517-291.222c-3.184-3.202-4.962-7.54-4.944-12.055
			c0.019-4.516,1.833-8.838,5.043-12.014l189.29-187.302c6.673-6.604,17.437-6.547,24.041,0.127
			c6.604,6.674,6.547,17.438-0.127,24.041l-177.177,175.317l277.503,279.137c6.619,6.658,6.588,17.422-0.071,24.041
			C7533.083,806.534,7528.748,808.182,7524.415,808.182z"/>
	</g>
	<g>
		<path d="M1586.226,731.849h-138.304c-9.389,0-17-7.611-17-17s7.611-17,17-17h138.304c9.389,0,17,7.611,17,17
			S1595.614,731.849,1586.226,731.849z"/>
	</g>
	<g>
		<path d="M2063.769,403.063h-116.991c-9.389,0-17-7.611-17-17s7.611-17,17-17h116.991c9.389,0,17,7.611,17,17
			S2073.157,403.063,2063.769,403.063z"/>
	</g>
	<g>
		<path d="M3467.363,517h-615.118c-9.389,0-17-7.611-17-17s7.611-17,17-17h615.118c9.389,0,17,7.611,17,17
			S3476.752,517,3467.363,517z"/>
	</g>
	<g>
		<path d="M10280.907,806.584c-68.15,0-132.223-26.54-180.413-74.729c-48.19-48.19-74.729-112.263-74.729-180.413
			c0-68.151,26.539-132.223,74.729-180.413s112.262-74.729,180.413-74.729s132.223,26.539,180.412,74.729
			c48.19,48.19,74.729,112.262,74.729,180.413c0,68.15-26.539,132.223-74.729,180.413
			C10413.13,780.044,10349.059,806.584,10280.907,806.584z M10280.907,330.299c-121.938,0-221.143,99.204-221.143,221.142
			c0,121.938,99.204,221.143,221.143,221.143c121.938,0,221.142-99.204,221.142-221.143
			C10502.049,429.503,10402.845,330.299,10280.907,330.299z"/>
	</g>
	<g>
		<path d="M13170.126,999.725c-69.642,0-135.115-27.12-184.36-76.365c-45.217-45.217-71.781-104.114-75.823-167.36h-34.651
			c-9.389,0-17-7.611-17-17s7.611-17,17-17h68.109v17c0,125.017,101.709,226.726,226.726,226.726
			c60.561,0,117.497-23.584,160.32-66.406c42.823-42.823,66.406-99.76,66.406-160.32s-23.583-117.499-66.406-160.324
			c-42.824-42.827-99.761-66.412-160.32-66.412c-9.389,0-17-7.611-17-17c0-9.389,7.611-17,17-17
			c69.642,0,135.116,27.123,184.362,76.372c49.245,49.247,76.365,114.723,76.364,184.365c0.001,69.643-27.12,135.116-76.365,184.361
			S13239.769,999.725,13170.126,999.725z"/>
	</g>
	<g>
		<path d="M13170.125,815.771c-69.643,0-135.116-27.12-184.36-76.365c-49.245-49.244-76.365-114.719-76.365-184.361
			c-0.001-69.617,27.12-135.073,76.365-184.31c49.247-49.239,114.722-76.356,184.36-76.356s135.112,27.117,184.36,76.356
			c49.245,49.237,76.366,114.693,76.366,184.31l0.001,14.823h58.978c9.389,0,17,7.611,17,17s-7.611,17-17,17h-92.977l-0.002-48.822
			c0-124.985-101.709-226.667-226.727-226.667c-60.559,0-117.495,23.582-160.32,66.4c-42.822,42.815-66.406,99.732-66.405,160.266
			c0,125.018,101.709,226.727,226.726,226.727c9.389,0,17,7.611,17,17S13179.514,815.771,13170.125,815.771z"/>
	</g>
	<g>
		<path d="M15223.141,809.199c-0.005,0-0.01,0-0.015,0c-6.881-0.006-13.08-4.159-15.702-10.521l-197.52-479.199
			c-3.578-8.681,0.558-18.618,9.238-22.196c8.68-3.578,18.617,0.559,22.195,9.239l181.841,441.161l182.736-441.188
			c3.593-8.674,13.538-12.794,22.211-9.201c8.675,3.593,12.794,13.537,9.201,22.211l-198.48,479.199
			C15236.216,805.058,15230.016,809.199,15223.141,809.199z"/>
	</g>
	<g>
		<path d="M16200.763,329.029h-240.614c-9.389,0-17-7.611-17-17s7.611-17,17-17h240.614c9.389,0,17,7.611,17,17
			S16210.151,329.029,16200.763,329.029z"/>
	</g>
	<g>
		<path d="M15827.178,329.029h-240.614c-9.389,0-17-7.611-17-17s7.611-17,17-17h240.614c9.389,0,17,7.611,17,17
			S15836.566,329.029,15827.178,329.029z"/>
	</g>
	<g>
		<path d="M15832.111,809.199c-0.005,0-0.01,0-0.015,0c-6.881-0.006-13.08-4.159-15.702-10.521l-197.52-479.199
			c-3.578-8.681,0.558-18.618,9.238-22.196s18.618,0.559,22.195,9.239l181.841,441.161l182.736-441.188
			c3.593-8.674,13.537-12.794,22.211-9.201c8.675,3.593,12.794,13.537,9.201,22.211l-198.48,479.199
			C15845.187,805.058,15838.986,809.199,15832.111,809.199z"/>
	</g>
	<g>
		<path d="M13833.779,1518.063h-240.614c-9.389,0-17-7.611-17-17s7.611-17,17-17h240.614c9.389,0,17,7.611,17,17
			S13843.168,1518.063,13833.779,1518.063z"/>
	</g>
	<g>
		<path d="M13984.78,2182.095h-334.922c-9.389,0-17-7.611-17-17s7.611-17,17-17h334.922c9.389,0,17,7.611,17,17
			S13994.169,2182.095,13984.78,2182.095z"/>
	</g>
	<g>
		<path d="M14208.141,1518.063h-240.614c-9.389,0-17-7.611-17-17s7.611-17,17-17h240.614c9.389,0,17,7.611,17,17
			S14217.529,1518.063,14208.141,1518.063z"/>
	</g>
	<g>
		<path d="M13899.661,2008.167c-6.683,0-13.02-3.965-15.724-10.526l-197.52-479.199c-3.578-8.681,0.558-18.618,9.238-22.195
			c8.683-3.58,18.617,0.558,22.195,9.238l197.52,479.199c3.578,8.681-0.558,18.618-9.238,22.195
			C13904.014,2007.753,13901.819,2008.167,13899.661,2008.167z"/>
	</g>
	<g>
		<path d="M15973.845,809.199c-0.005,0-0.01,0-0.015,0c-6.881-0.006-13.08-4.159-15.702-10.521l-70.694-171.511
			c-3.578-8.681,0.558-18.618,9.238-22.195c8.68-3.58,18.617,0.559,22.195,9.238l55.016,133.472l182.736-441.187
			c3.592-8.674,13.536-12.794,22.211-9.201c8.675,3.593,12.794,13.537,9.201,22.211l-198.48,479.199
			C15986.92,805.058,15980.72,809.199,15973.845,809.199z"/>
	</g>
	<g>
		<path d="M13181.836,1714.172c-4.994,0-9.736-2.196-12.967-6.006l-173.113-204.172c-6.071-7.161-5.188-17.889,1.973-23.961
			c7.161-6.071,17.889-5.188,23.961,1.973l160.137,188.867l159.887-188.857c6.065-7.165,16.791-8.058,23.959-1.99
			c7.166,6.066,8.057,16.793,1.99,23.959l-172.852,204.172c-3.229,3.813-7.972,6.014-12.969,6.016
			C13181.84,1714.172,13181.838,1714.172,13181.836,1714.172z"/>
	</g>
	<g>
		<path d="M13430.926,2008.162c-4.824,0.001-9.616-2.042-12.979-6.011l-236.11-278.681l-236.11,278.681
			c-6.067,7.164-16.796,8.053-23.96,1.981c-7.163-6.069-8.051-16.797-1.981-23.96l249.081-293.99
			c3.23-3.813,7.974-6.011,12.971-6.011s9.74,2.198,12.971,6.011l249.081,293.99c6.069,7.163,5.182,17.891-1.981,23.96
			C13438.712,2006.839,13434.808,2008.162,13430.926,2008.162z"/>
	</g>
	<g>
		<path d="M13841.328,2176.429c-2.179,0-4.392-0.422-6.528-1.311c-8.667-3.609-12.768-13.562-9.159-22.229l269.595-647.461
			c3.609-8.667,13.559-12.766,22.229-9.159c8.667,3.609,12.768,13.562,9.159,22.229l-269.595,647.461
			C13854.31,2172.49,13847.987,2176.429,13841.328,2176.429z"/>
	</g>
	<g>
		<path d="M14912.707,2011.732h-615.738c-9.389,0-17-7.611-17-17v-41.231c0-5.29,2.463-10.278,6.662-13.495l561.36-430.006h-491.747
			v135c0,9.389-7.611,17-17,17s-17-7.611-17-17v-152c0-9.389,7.611-17,17-17h558.896c7.285,0,13.761,4.643,16.1,11.542
			c2.34,6.9,0.021,14.523-5.762,18.954l-594.51,455.397v15.839h581.738V1881c0-9.389,7.611-17,17-17s17,7.611,17,17v113.732
			C14929.707,2004.121,14922.096,2011.732,14912.707,2011.732z"/>
	</g>
	<g>
		<path d="M8663.522,809.199c-9.389,0-17-7.611-17-17V312.833c0-9.389,7.611-17,17-17s17,7.611,17,17v479.366
			C8680.522,801.588,8672.911,809.199,8663.522,809.199z"/>
	</g>
	<g>
		<path d="M8914.572,808.333c-9.389,0-17-7.611-17-17V556.564c0-9.389,7.611-17,17-17s17,7.611,17,17v234.769
			C8931.572,800.722,8923.961,808.333,8914.572,808.333z"/>
	</g>
	<g>
		<path d="M8914.572,573.564c-9.389,0-17-7.611-17-17c0-125.013-104.995-226.719-234.051-226.719c-9.389,0-17-7.611-17-17
			s7.611-17,17-17c71.504,0,138.754,27.057,189.361,76.187c50.744,49.262,78.689,114.797,78.689,184.532
			C8931.572,565.953,8923.961,573.564,8914.572,573.564z"/>
	</g>
</g>
<g id="reperes">
</g>
</svg>
