<?xml version="1.0" encoding="utf-8"?>
<!-- Generator: Adobe Illustrator 15.0.0, SVG Export Plug-In . SVG Version: 6.00 Build 0)  -->
<!DOCTYPE svg PUBLIC "-//W3C//DTD SVG 1.1//EN" "http://www.w3.org/Graphics/SVG/1.1/DTD/svg11.dtd">
<svg version="1.1" xmlns="http://www.w3.org/2000/svg" xmlns:xlink="http://www.w3.org/1999/xlink" x="0px" y="0px" width="650px"
	 height="1000px" viewBox="0 0 650 1000" enable-background="new 0 0 650 1000" xml:space="preserve">
<g id="design">
	<g>
		<path d="M-4685.288,815.997c-69.642,0-135.116-27.12-184.361-76.365c-49.245-49.245-76.365-114.719-76.365-184.361
			c0-69.642,27.12-135.116,76.365-184.361c49.245-49.245,114.719-76.365,184.361-76.365c69.643,0,135.116,27.12,184.361,76.365
			s76.365,114.719,76.365,184.361c0,69.643-27.12,135.116-76.365,184.361S-4615.646,815.997-4685.288,815.997z M-4685.288,328.545
			c-125.017,0-226.726,101.708-226.726,226.726c0,125.018,101.709,226.727,226.726,226.727s226.726-101.709,226.726-226.727
			C-4458.563,430.253-4560.271,328.545-4685.288,328.545z"/>
	</g>
	<g>
		<path d="M-4314.334,809.199h-139.256V314.135c0-9.389,7.611-17,17-17s17,7.611,17,17v461.064h105.256c9.389,0,17,7.611,17,17
			S-4304.946,809.199-4314.334,809.199z"/>
	</g>
	<g>
		<path d="M-3254.253,815.997c-69.642,0-135.116-27.12-184.361-76.365s-76.365-114.719-76.365-184.361
			c0-69.642,27.12-135.116,76.365-184.361s114.719-76.365,184.361-76.365c69.643,0,135.116,27.12,184.361,76.365
			c49.244,49.245,76.364,114.719,76.364,184.361c0,69.643-27.12,135.116-76.364,184.361
			C-3119.137,788.877-3184.611,815.997-3254.253,815.997z M-3254.253,328.545c-125.017,0-226.726,101.708-226.726,226.726
			c0,125.018,101.709,226.727,226.726,226.727c125.017,0,226.726-101.709,226.726-226.727
			C-3027.528,430.253-3129.236,328.545-3254.253,328.545z"/>
	</g>
	<g>
		<path d="M-2883.299,809.199h-139.257V314.135c0-9.389,7.611-17,17-17c9.389,0,17,7.611,17,17v461.064h105.257
			c9.389,0,17,7.611,17,17S-2873.911,809.199-2883.299,809.199z"/>
	</g>
	<g>
		<path d="M-3104.727,278.319c-0.98,0-1.973-0.085-2.972-0.261l-284.006-50.078c-9.246-1.63-15.42-10.448-13.79-19.694
			s10.447-15.423,19.694-13.79l284.006,50.078c9.246,1.63,15.42,10.448,13.79,19.694
			C-3089.459,272.516-3096.632,278.319-3104.727,278.319z"/>
	</g>
	<g>
		<path d="M-2552.986,815.997c-69.642,0-135.117-27.12-184.361-76.365c-49.245-49.245-76.365-114.719-76.365-184.361
			c0-69.642,27.12-135.116,76.365-184.361c49.244-49.245,114.719-76.365,184.361-76.365s135.116,27.12,184.361,76.365
			s76.365,114.719,76.365,184.361c0,69.643-27.12,135.116-76.365,184.361S-2483.344,815.997-2552.986,815.997z M-2552.986,328.545
			c-125.017,0-226.726,101.708-226.726,226.726c0,125.018,101.709,226.727,226.726,226.727s226.726-101.709,226.726-226.727
			C-2326.261,430.253-2427.969,328.545-2552.986,328.545z"/>
	</g>
	<g>
		<path d="M-2182.033,809.199h-139.256V314.135c0-9.389,7.611-17,17-17s17,7.611,17,17v461.064h105.256c9.389,0,17,7.611,17,17
			S-2172.644,809.199-2182.033,809.199z"/>
	</g>
	<g>
		<path d="M-2403.459,278.319c-0.98,0-1.973-0.085-2.972-0.261l-139.056-24.52l-139.056,24.443
			c-9.248,1.624-18.061-4.553-19.687-13.8c-1.625-9.247,4.554-18.061,13.801-19.687l144.95-25.479l144.951,25.559
			c9.246,1.63,15.42,10.448,13.79,19.694C-2388.192,272.516-2395.365,278.319-2403.459,278.319z"/>
	</g>
	<g>
		<path d="M-3965.622,815.997c-69.643,0-135.117-27.12-184.361-76.365s-76.365-114.719-76.365-184.361
			c0-69.642,27.121-135.116,76.365-184.361s114.719-76.365,184.361-76.365c69.642,0,135.116,27.12,184.36,76.365
			c49.245,49.245,76.365,114.719,76.365,184.361c0,69.643-27.121,135.116-76.365,184.361
			C-3830.505,788.877-3895.979,815.997-3965.622,815.997z M-3965.622,328.545c-125.018,0-226.727,101.708-226.727,226.726
			c0,125.018,101.709,226.727,226.727,226.727c125.017,0,226.726-101.709,226.726-226.727
			C-3738.896,430.253-3840.605,328.545-3965.622,328.545z"/>
	</g>
	<g>
		<path d="M-3594.668,809.199h-139.256V314.135c0-9.389,7.611-17,17-17c9.389,0,17,7.611,17,17v461.064h105.256
			c9.389,0,17,7.611,17,17S-3585.279,809.199-3594.668,809.199z"/>
	</g>
	<g>
		<path d="M-4100.141,278.319c-8.095,0-15.268-5.803-16.722-14.051c-1.63-9.247,4.543-18.063,13.79-19.694l284.006-50.078
			c9.246-1.63,18.063,4.544,19.694,13.79c1.63,9.247-4.543,18.063-13.79,19.694l-284.006,50.078
			C-4098.167,278.234-4099.161,278.319-4100.141,278.319z"/>
	</g>
	<g>
		<path d="M-4675.289,277.175c-30.673,0-55.628-24.955-55.628-55.628s24.955-55.628,55.628-55.628s55.628,24.955,55.628,55.628
			S-4644.615,277.175-4675.289,277.175z M-4675.289,199.919c-11.926,0-21.628,9.702-21.628,21.628s9.702,21.628,21.628,21.628
			s21.628-9.702,21.628-21.628S-4663.363,199.919-4675.289,199.919z"/>
	</g>
	<g>
	</g>
	<g>
		<path d="M-1850.616,815.997c-69.642,0-135.116-27.12-184.361-76.365s-76.365-114.719-76.365-184.361
			c0-69.642,27.12-135.116,76.365-184.361s114.719-76.365,184.361-76.365c69.643,0,135.116,27.12,184.361,76.365
			c49.244,49.245,76.364,114.719,76.364,184.361c0,69.643-27.12,135.116-76.364,184.361
			C-1715.5,788.877-1780.973,815.997-1850.616,815.997z M-1850.616,328.545c-125.017,0-226.726,101.708-226.726,226.726
			c0,125.018,101.709,226.727,226.726,226.727c125.017,0,226.726-101.709,226.726-226.727
			C-1623.89,430.253-1725.599,328.545-1850.616,328.545z"/>
	</g>
	<g>
		<path d="M-1479.662,809.199h-139.257V314.135c0-9.389,7.611-17,17-17c9.389,0,17,7.611,17,17v461.064h105.257
			c9.389,0,17,7.611,17,17S-1470.273,809.199-1479.662,809.199z"/>
	</g>
	<g>
		<path d="M-1786.616,277.175c-30.674,0-55.628-24.955-55.628-55.628s24.954-55.628,55.628-55.628
			c30.673,0,55.628,24.955,55.628,55.628S-1755.943,277.175-1786.616,277.175z M-1786.616,199.919
			c-11.926,0-21.628,9.702-21.628,21.628s9.702,21.628,21.628,21.628s21.628-9.702,21.628-21.628S-1774.69,199.919-1786.616,199.919
			z"/>
	</g>
	<g>
		<path d="M-396.618,800c-30.673,0-55.628-24.955-55.628-55.628s24.955-55.628,55.628-55.628c30.674,0,55.628,24.955,55.628,55.628
			S-365.944,800-396.618,800z M-396.618,722.744c-11.926,0-21.628,9.702-21.628,21.628S-408.543,766-396.618,766
			s21.628-9.702,21.628-21.628S-384.692,722.744-396.618,722.744z"/>
	</g>
	<g>
		<path d="M126.667,800c-30.673,0-55.628-24.955-55.628-55.628s24.955-55.628,55.628-55.628c30.674,0,55.628,24.955,55.628,55.628
			S157.34,800,126.667,800z M126.667,722.744c-11.926,0-21.628,9.702-21.628,21.628S114.741,766,126.667,766
			s21.628-9.702,21.628-21.628S138.592,722.744,126.667,722.744z"/>
	</g>
	<g>
		<path d="M237.667,800c-30.673,0-55.628-24.955-55.628-55.628s24.955-55.628,55.628-55.628c30.674,0,55.628,24.955,55.628,55.628
			S268.34,800,237.667,800z M237.667,722.744c-11.926,0-21.628,9.702-21.628,21.628S225.741,766,237.667,766
			s21.628-9.702,21.628-21.628S249.592,722.744,237.667,722.744z"/>
	</g>
	<g>
		<path d="M348.667,800c-30.673,0-55.628-24.955-55.628-55.628s24.955-55.628,55.628-55.628c30.674,0,55.628,24.955,55.628,55.628
			S379.34,800,348.667,800z M348.667,722.744c-11.926,0-21.628,9.702-21.628,21.628S336.741,766,348.667,766
			s21.628-9.702,21.628-21.628S360.592,722.744,348.667,722.744z"/>
	</g>
	<g>
		<path d="M1072.863,800c-30.673,0-55.628-24.955-55.628-55.628s24.955-55.628,55.628-55.628c30.674,0,55.628,24.955,55.628,55.628
			S1103.537,800,1072.863,800z M1072.863,722.744c-11.926,0-21.628,9.702-21.628,21.628S1060.937,766,1072.863,766
			s21.628-9.702,21.628-21.628S1084.789,722.744,1072.863,722.744z"/>
	</g>
	<g>
		<path d="M1072.863,689c-30.673,0-55.628-24.955-55.628-55.628s24.955-55.628,55.628-55.628c30.674,0,55.628,24.955,55.628,55.628
			S1103.537,689,1072.863,689z M1072.863,611.744c-11.926,0-21.628,9.702-21.628,21.628S1060.937,655,1072.863,655
			s21.628-9.702,21.628-21.628S1084.789,611.744,1072.863,611.744z"/>
	</g>
	<g>
		<path d="M-1908.616,277.175c-30.674,0-55.628-24.955-55.628-55.628s24.954-55.628,55.628-55.628
			c30.673,0,55.628,24.955,55.628,55.628S-1877.943,277.175-1908.616,277.175z M-1908.616,199.919
			c-11.926,0-21.628,9.702-21.628,21.628s9.702,21.628,21.628,21.628s21.628-9.702,21.628-21.628S-1896.69,199.919-1908.616,199.919
			z"/>
	</g>
	<g>
	</g>
	<path fill="none" stroke="#000000" stroke-width="34" stroke-linecap="round" stroke-miterlimit="10" d="M-1123.706,875.937
		c112.039,0,202.865-90.826,202.865-202.865h-122.865v101.433"/>
</g>
<g id="reperes">
</g>
</svg>
