<?xml version="1.0" encoding="utf-8"?>
<!-- Generator: Adobe Illustrator 15.0.0, SVG Export Plug-In . SVG Version: 6.00 Build 0)  -->
<!DOCTYPE svg PUBLIC "-//W3C//DTD SVG 1.1//EN" "http://www.w3.org/Graphics/SVG/1.1/DTD/svg11.dtd">
<svg version="1.1" id="Calque_1" xmlns="http://www.w3.org/2000/svg" xmlns:xlink="http://www.w3.org/1999/xlink" x="0px" y="0px"
	 width="650px" height="1000px" viewBox="0 0 650 1000" enable-background="new 0 0 650 1000" xml:space="preserve">
<g>
	<path d="M-11853.14-367.495h-272.693c-9.39,0-17-7.611-17-17s7.61-17,17-17h272.693c100.856,0,184.521-29.758,241.947-86.057
		c50.259-49.271,77.938-116.448,77.938-189.157c0-143.313-109.878-288.393-319.885-288.393h-272.659c-9.389,0-17-7.611-17-17
		s7.611-17,17-17h272.659c107.289,0,198.397,34.899,263.477,100.925c29.296,29.723,52.057,64.542,67.649,103.489
		c15.102,37.721,22.759,77.414,22.759,117.978c0,81.918-31.301,157.718-88.136,213.437
		C-11651.305-400.614-11743.199-367.495-11853.14-367.495z"/>
</g>
<g>
	<path d="M-11972.92-588.102c-2.19,0.001-4.398-0.423-6.502-1.294c-6.353-2.632-10.494-8.83-10.494-15.706v-362.01
		c0-9.389,7.61-17,17-17c9.389,0,17,7.611,17,17v320.968l160.548-160.548c6.639-6.638,17.403-6.639,24.042,0
		c6.639,6.639,6.639,17.403,0,24.042l-189.569,189.569C-11964.147-589.829-11968.496-588.102-11972.92-588.102z"/>
</g>
<g>
	<path d="M-13683.129-363.326c-6.465,0-12.643-3.706-15.489-9.977l-270.356-595.554h-176.262c-9.389,0-17-7.611-17-17
		s7.611-17,17-17h187.214c6.669,0,12.723,3.9,15.479,9.973l274.884,605.527c3.881,8.55,0.097,18.626-8.452,22.507
		C-13678.391-363.816-13680.779-363.326-13683.129-363.326z"/>
</g>
<g>
	<path d="M-14236.588-369.098c-2.318,0-4.674-0.477-6.927-1.483c-8.571-3.831-12.415-13.885-8.585-22.457l237.484-531.395
		c3.831-8.572,13.885-12.418,22.457-8.584c8.572,3.831,12.416,13.885,8.584,22.457l-237.484,531.395
		C-14223.882-372.847-14230.088-369.098-14236.588-369.098z"/>
</g>
<g>
	<path d="M-14258.981-365.102c-9.373,0-16.979-7.588-16.999-16.966c-0.02-9.389,7.576-17.015,16.965-17.034l404.391-0.825
		l-88.529-201.602c-3.775-8.597,0.133-18.625,8.73-22.4c8.596-3.777,18.625,0.133,22.4,8.73l98.973,225.384
		c2.306,5.251,1.809,11.311-1.322,16.115c-3.131,4.806-8.474,7.708-14.209,7.72l-430.363,0.878
		C-14258.957-365.102-14258.97-365.102-14258.981-365.102z"/>
</g>
<g>
	<path d="M-13643.889-361.979h-127.357c-9.389,0-17-7.611-17-17s7.611-17,17-17h127.357c9.389,0,17,7.611,17,17
		S-13634.5-361.979-13643.889-361.979z"/>
</g>
<g>
	<path fill="none" stroke="#000000" stroke-width="34" stroke-linecap="round" stroke-linejoin="round" stroke-miterlimit="10" d="
		M-13102.314-385.021"/>
</g>
<g>
	<path d="M-13095.805-369.102c-9.389,0-17-7.611-17-17s7.611-17,17-17c85.602,0,155.242-81.512,155.242-181.704
		c0-77.547-42.115-146.614-104.798-171.864c-7.807-3.145-12.138-11.528-10.184-19.714c4.138-17.339,6.235-35.804,6.235-54.881
		c0-44.938-25.234-78.815-40.277-95.009c-24.843-26.745-51.786-38.716-67.469-38.716h-382.633c-9.389,0-17-7.611-17-17
		s7.611-17,17-17h382.633c28.577,0,63.975,18.997,92.38,49.576c31.834,34.271,49.366,76.231,49.366,118.148
		c0,16.773-1.436,33.182-4.277,48.957c68.143,34.152,113.023,111.606,113.023,197.503c0,57.166-19.392,111.02-54.604,151.64
		C-12996.977-391.854-13044.792-369.102-13095.805-369.102z"/>
</g>
<g>
	<path d="M-13411.566-369.101c-1.978,0-3.975-0.346-5.902-1.06c-6.668-2.471-11.094-8.83-11.094-15.941v-594.553
		c0-9.389,7.611-17,17-17s17,7.611,17,17v548.665l180.142-209.756c6.116-7.121,16.85-7.938,23.973-1.82
		c7.122,6.117,7.938,16.85,1.82,23.973l-210.038,244.567C-13401.959-371.19-13406.703-369.101-13411.566-369.101z"/>
</g>
<g>
	<path d="M-13301.27-744.25c-4.352,0-8.701-1.659-12.021-4.979c-6.639-6.639-6.639-17.403,0.001-24.042l99.745-99.745
		c6.639-6.638,17.402-6.639,24.041,0s6.639,17.403,0,24.042l-99.745,99.745C-13292.568-745.91-13296.92-744.25-13301.27-744.25z"/>
</g>
<g>
	<path d="M-12369.596-369.102h-237.432c-63.236,0-122.738-23.132-167.547-65.135c-45.113-42.282-69.959-98.591-69.959-158.552
		v-181.216c0-59.958,24.846-116.265,69.959-158.55c44.807-42,104.314-65.134,167.544-65.134c0.004,0-0.001,0,0.003,0l118.715,0
		l118.717,0c50.559,0,98.734,14.79,138.92,42.187v-44.551c0-9.389,7.611-17,17-17c9.39,0,17,7.611,17,17v79.901
		c0,6.776-4.023,12.905-10.24,15.599c-6.218,2.694-13.441,1.439-18.385-3.195c-38.486-36.073-89.73-55.94-144.295-55.94l-118.717,0
		l-118.715,0c-54.565,0-105.811,19.866-144.295,55.94c-38.184,35.789-59.211,83.287-59.211,133.744v181.216
		c0,50.46,21.027,97.958,59.21,133.745c38.485,36.074,89.729,55.941,144.296,55.941h237.432c54.564,0,105.81-19.866,144.296-55.939
		c6.85-6.422,17.608-6.071,24.028,0.777c6.421,6.851,6.073,17.608-0.777,24.029
		C-12246.859-392.232-12306.362-369.102-12369.596-369.102z"/>
</g>
<g>
	<path d="M-12698.901-599.379c-9.389,0-17-7.611-17-17v-157.625c0-59.958,24.846-116.266,69.96-158.55
		c44.807-42,104.314-65.134,167.544-65.134c0.004,0-0.002,0,0.002,0c9.39,0,17,7.611,17,17c0,9.388-7.612,17-17,17
		c-0.001,0,0.001,0,0,0c-54.565,0-105.81,19.866-144.294,55.94c-38.184,35.789-59.212,83.287-59.212,133.744v157.625
		C-12681.901-606.99-12689.513-599.379-12698.901-599.379z"/>
</g>
<g>
	<path d="M-10852.713-843.994c-9.389,0-17-7.611-17-17v-110.715h-557c-9.389,0-17-7.611-17-17s7.611-17,17-17h574
		c9.389,0,17,7.611,17,17v127.715C-10835.713-851.605-10843.324-843.994-10852.713-843.994z"/>
</g>
<g>
	<path d="M-10809.713-368.021h-614.165c-9.389,0-17-7.611-17-17s7.611-17,17-17h597.165v-143.212c0-9.389,7.611-17,17-17
		s17,7.611,17,17v160.212C-10792.713-375.632-10800.324-368.021-10809.713-368.021z"/>
</g>
<g>
	<path d="M-11300.713-368.021c-9.389,0-17-7.611-17-17v-293.081c0-8.298,5.991-15.384,14.174-16.764l210.504-35.486l-209.996-28.914
		c-8.414-1.159-14.682-8.349-14.682-16.841v-204.548c0-9.389,7.611-17,17-17s17,7.611,17,17v189.728l305.318,42.039
		c8.317,1.146,14.553,8.19,14.68,16.585s-5.894,15.624-14.172,17.02l-305.826,51.555v278.707
		C-11283.713-375.632-11291.324-368.021-11300.713-368.021z"/>
</g>
<g>
	<path d="M-6088.675-971.709h-384.385c-9.389,0-17-7.611-17-17s7.611-17,17-17h384.385c9.389,0,17,7.611,17,17
		S-6079.286-971.709-6088.675-971.709z"/>
</g>
<g>
	<path d="M-5858.895-368.021h-614.166c-9.389,0-17-7.611-17-17s7.611-17,17-17h597.166v-143.212c0-9.389,7.611-17,17-17
		s17,7.611,17,17v160.212C-5841.895-375.632-5849.506-368.021-5858.895-368.021z"/>
</g>
<g>
	<path d="M-6219.056-589.102c-9.389,0-17-7.611-17-17v-374.553c0-9.389,7.611-17,17-17s17,7.611,17,17v374.553
		C-6202.056-596.713-6209.667-589.102-6219.056-589.102z"/>
</g>
<g>
	<path d="M-9113.555-971.709h-200.117c-9.389,0-17-7.611-17-17s7.611-17,17-17h200.117c9.389,0,17,7.611,17,17
		S-9104.166-971.709-9113.555-971.709z"/>
</g>
<g>
	<path d="M-8698.002-971.709h-200.117c-9.389,0-17-7.611-17-17s7.611-17,17-17h200.117c9.389,0,17,7.611,17,17
		S-8688.613-971.709-8698.002-971.709z"/>
</g>
<g>
	<path d="M-9113.555-368.021h-200.117c-9.389,0-17-7.611-17-17s7.611-17,17-17h200.117c9.389,0,17,7.611,17,17
		S-9104.166-368.021-9113.555-368.021z"/>
</g>
<g>
	<path d="M-8698.002-368.021h-200.117c-9.389,0-17-7.611-17-17s7.611-17,17-17h200.117c9.389,0,17,7.611,17,17
		S-8688.613-368.021-8698.002-368.021z"/>
</g>
<g>
	<path d="M-10108.12-843.994c-9.389,0-17-7.611-17-17v-110.715h-602.353c-9.39,0-17-7.611-17-17s7.61-17,17-17h619.353
		c9.389,0,17,7.611,17,17v127.715C-10091.12-851.605-10098.731-843.994-10108.12-843.994z"/>
</g>
<g>
	<path d="M-10430.473-368.021h-297c-9.39,0-17-7.611-17-17s7.61-17,17-17h297c9.389,0,17,7.611,17,17
		S-10421.084-368.021-10430.473-368.021z"/>
</g>
<g>
	<path d="M-10601.473-368.021c-9.39,0-17-7.611-17-17v-315.295c0-4.51,1.791-8.835,4.981-12.023
		c3.188-3.187,7.511-4.977,12.018-4.977c0.003,0,0.005,0,0.008,0l320,0.137c9.389,0.004,16.996,7.619,16.992,17.007
		c-0.004,9.386-7.614,16.993-16.999,16.993c-0.004,0-0.005,0-0.008,0l-302.992-0.13v298.288
		C-10584.473-375.632-10592.084-368.021-10601.473-368.021z"/>
</g>
<g>
	<path fill="none" stroke="#000000" stroke-width="34" stroke-linecap="round" stroke-linejoin="round" stroke-miterlimit="10" d="
		M-10601.473-980.654"/>
</g>
<g>
	<path d="M-7966.011-368.021h-618.228c-9.389,0-17-7.611-17-17s7.611-17,17-17h618.228c9.389,0,17,7.611,17,17
		S-7956.622-368.021-7966.011-368.021z"/>
</g>
<g>
	<path d="M-7966.011-964.99h-618.228c-9.389,0-17-7.611-17-17s7.611-17,17-17h618.228c9.389,0,17,7.611,17,17
		S-7956.622-964.99-7966.011-964.99z"/>
</g>
<g>
	<path d="M-9574.232-369.102h-237.434c-63.154,0-122.602-22.541-167.388-63.471c-45.216-41.314-70.118-96.373-70.118-155.031
		v-176.671c0-58.657,24.902-113.715,70.119-155.031c44.783-40.926,104.234-63.469,167.385-63.469c0.004,0-0.002,0,0.002,0l118.715,0
		l118.719,0c50.556,0,98.732,14.442,138.92,41.203v-43.082c0-9.389,7.611-17,17-17s17,7.611,17,17v77.897
		c0,6.737-3.979,12.838-10.143,15.556c-6.166,2.718-13.353,1.539-18.326-3.006c-38.508-35.188-89.808-54.567-144.451-54.567
		l-118.719,0l-118.715,0c-54.645,0-105.945,19.379-144.451,54.568c-38.082,34.797-59.055,80.941-59.055,129.933v176.671
		c0,48.992,20.973,95.137,59.054,129.933c38.507,35.189,89.808,54.569,144.452,54.569h237.434
		c48.279,0,93.949-15.127,130.492-42.921l-154.293-148.78c-6.758-6.517-6.954-17.279-0.438-24.037
		c6.518-6.759,17.279-6.954,24.038-0.438l167.921,161.921c3.38,3.259,5.262,7.771,5.198,12.466
		c-0.063,4.694-2.065,9.154-5.53,12.321C-9451.634-391.642-9511.08-369.102-9574.232-369.102z"/>
</g>
<g>
	<path d="M-9493.172-592.102h-200.982c-9.389,0-17-7.611-17-17s7.611-17,17-17h200.982c9.389,0,17,7.611,17,17
		S-9483.783-592.102-9493.172-592.102z"/>
</g>
<g>
	<path d="M-8789.555-369.102c-9.389,0-17-7.611-17-17v-598.553c0-9.389,7.611-17,17-17s17,7.611,17,17v598.553
		C-8772.555-376.713-8780.166-369.102-8789.555-369.102z"/>
</g>
<g>
	<path d="M-9203.789-369.102c-9.389,0-17-7.611-17-17v-299.276c0-5.146,2.331-10.016,6.34-13.243
		c4.01-3.227,9.265-4.465,14.291-3.365l414.234,90.576c9.173,2.006,14.982,11.066,12.977,20.239
		c-2.006,9.171-11.068,14.979-20.238,12.976l-393.604-86.064v278.157C-9186.789-376.713-9194.4-369.102-9203.789-369.102z"/>
</g>
<g>
	<path d="M-8872.309-726.594c-1.23,0-2.479-0.134-3.729-0.414l-321.862-72.055c-7.801-1.746-13.33-8.69-13.286-16.684l0.915-165.002
		c0.053-9.356,7.654-16.906,16.998-16.906c0.033,0,0.063,0,0.096,0c9.389,0.052,16.958,7.706,16.906,17.094l-0.84,151.31
		l308.501,69.063c9.162,2.051,14.927,11.141,12.876,20.303C-8857.506-731.973-8864.526-726.595-8872.309-726.594z"/>
</g>
<g>
	<path d="M-8231.264-383.254c-9.389,0-17-7.611-17-17v-376.047l-101.582-23.351c-7.76-1.784-13.242-8.715-13.191-16.677
		l1.057-164.435c0.061-9.351,7.66-16.891,16.997-16.891c0.037,0,0.074,0,0.112,0c9.389,0.06,16.95,7.72,16.89,17.109l-0.969,150.81
		l101.495,23.331c7.72,1.774,13.191,8.646,13.191,16.568v389.583C-8214.264-390.865-8221.875-383.254-8231.264-383.254z"/>
</g>
<g>
	<path d="M-8355.498-369.102c-9.389,0-17-7.611-17-17v-299.276c0-5.146,2.33-10.016,6.34-13.243
		c4.009-3.227,9.264-4.465,14.291-3.365l110.21,24.099c9.173,2.006,14.981,11.066,12.976,20.239
		c-2.005,9.172-11.065,14.981-20.238,12.976l-89.578-19.587v278.157C-8338.498-376.713-8346.109-369.102-8355.498-369.102z"/>
</g>
<g>
	<path d="M-7257.128-964.99h-436.994c-9.389,0-17-7.611-17-17s7.611-17,17-17h436.994c9.389,0,17,7.611,17,17
		S-7247.739-964.99-7257.128-964.99z"/>
</g>
<g>
	<path d="M-7616.12-592.102h-253.843c-9.389,0-17-7.611-17-17s7.611-17,17-17h253.843c9.389,0,17,7.611,17,17
		S-7606.731-592.102-7616.12-592.102z"/>
</g>
<g>
	<path d="M-7414.418-777.523c-1.23,0-2.478-0.134-3.728-0.414l-100.749-22.544c-7.807-1.747-13.339-8.7-13.287-16.7l1.057-163.583
		c0.06-9.351,7.66-16.89,16.997-16.89c0.038,0,0.074,0,0.112,0c9.389,0.061,16.95,7.721,16.89,17.109l-0.968,149.877l87.373,19.551
		c9.162,2.05,14.928,11.14,12.877,20.302C-7399.614-782.903-7406.635-777.524-7414.418-777.523z"/>
</g>
<g>
	<path d="M-6970.674-971.709h-200.117c-9.389,0-17-7.611-17-17s7.611-17,17-17h200.117c9.389,0,17,7.611,17,17
		S-6961.286-971.709-6970.674-971.709z"/>
</g>
<g>
	<path d="M-6557.869-365.102h-200.117c-9.389,0-17-7.611-17-17s7.611-17,17-17h200.117c9.389,0,17,7.611,17,17
		S-6548.48-365.102-6557.869-365.102z"/>
</g>
<g>
	<path d="M-6970.674-368.021h-200.117c-9.389,0-17-7.611-17-17s7.611-17,17-17h200.117c9.389,0,17,7.611,17,17
		S-6961.286-368.021-6970.674-368.021z"/>
</g>
<g>
	<path d="M-7070.733-369.102c-9.389,0-17-7.611-17-17V-981.99c0-9.389,7.611-17,17-17s17,7.611,17,17v595.889
		C-7053.733-376.713-7061.344-369.102-7070.733-369.102z"/>
</g>
<g>
	<path d="M-9493.172-721.414h-200.982c-9.389,0-17-7.611-17-17s7.611-17,17-17h200.982c9.389,0,17,7.611,17,17
		S-9483.783-721.414-9493.172-721.414z"/>
</g>
<g>
	<path d="M-10281.474-811.944h-319.999c-9.39,0-17-7.611-17-17s7.61-17,17-17h319.999c9.39,0,17,7.611,17,17
		S-10272.084-811.944-10281.474-811.944z"/>
</g>
<g>
	<path d="M-7070.719-766.459c-6.208,0-12.19-3.413-15.184-9.331c-4.238-8.378-0.881-18.605,7.497-22.843l419.207-212.03
		c8.379-4.238,18.606-0.88,22.843,7.497c4.238,8.378,0.881,18.605-7.497,22.843l-419.207,212.03
		C-7065.52-767.049-7068.14-766.459-7070.719-766.459z"/>
</g>
<g>
	<path d="M-6640.902-369.1c-5.713,0.001-11.29-2.878-14.5-8.102l-212.019-345.045l-195.639,98.952
		c-8.379,4.238-18.605,0.881-22.843-7.497c-4.238-8.378-0.881-18.605,7.497-22.843l209.604-106.015
		c7.892-3.993,17.526-1.266,22.157,6.27l220.211,358.377c4.915,8,2.415,18.469-5.584,23.385
		C-6634.793-369.912-6637.868-369.1-6640.902-369.1z"/>
</g>
<g>
	<path d="M-5203.097-643.498c-4.352,0-8.701-1.659-12.021-4.979l-323.232-323.232h-193.075c-9.389,0-17-7.611-17-17s7.611-17,17-17
		h200.117c4.509,0,8.833,1.791,12.021,4.979l328.211,328.212c6.64,6.639,6.64,17.402,0,24.041
		C-5194.395-645.158-5198.746-643.498-5203.097-643.498z"/>
</g>
<g>
	<path d="M-5531.308-368.021h-200.117c-9.389,0-17-7.611-17-17s7.611-17,17-17h200.117c9.389,0,17,7.611,17,17
		S-5521.919-368.021-5531.308-368.021z"/>
</g>
<g>
	<path d="M-5631.366-369.102c-9.389,0-17-7.611-17-17V-981.99c0-9.389,7.611-17,17-17s17,7.611,17,17v595.889
		C-5614.366-376.713-5621.978-369.102-5631.366-369.102z"/>
</g>
<g>
	<path d="M-5625.871-645.212c-4.351,0-8.701-1.66-12.021-4.979c-6.64-6.639-6.64-17.402,0-24.041l326.497-326.498
		c3.188-3.188,7.512-4.979,12.021-4.979h180.272c9.389,0,17,7.611,17,17s-7.611,17-17,17h-173.23l-321.519,321.518
		C-5617.17-646.872-5621.521-645.212-5625.871-645.212z"/>
</g>
<g>
	<path d="M-5119.102-368.021h-200.117c-9.389,0-17-7.611-17-17s7.611-17,17-17h200.117c9.389,0,17,7.611,17,17
		S-5109.713-368.021-5119.102-368.021z"/>
</g>
<g>
	<path d="M-5199.315-369.102c-9.389,0-17-7.611-17-17V-981.99c0-9.389,7.611-17,17-17s17,7.611,17,17v595.889
		C-5182.315-376.713-5189.927-369.102-5199.315-369.102z"/>
</g>
<g>
	<path d="M-4487.688-643.498c-4.352,0-8.701-1.659-12.021-4.979l-323.232-323.232h-193.075c-9.389,0-17-7.611-17-17s7.611-17,17-17
		h200.117c4.509,0,8.833,1.791,12.021,4.979l328.211,328.212c6.64,6.639,6.64,17.402,0,24.041
		C-4478.986-645.158-4483.338-643.498-4487.688-643.498z"/>
</g>
<g>
	<path d="M-4815.899-368.021h-200.117c-9.389,0-17-7.611-17-17s7.611-17,17-17h200.117c9.389,0,17,7.611,17,17
		S-4806.511-368.021-4815.899-368.021z"/>
</g>
<g>
	<path d="M-4915.958-369.102c-9.389,0-17-7.611-17-17V-981.99c0-9.389,7.611-17,17-17s17,7.611,17,17v595.889
		C-4898.958-376.713-4906.569-369.102-4915.958-369.102z"/>
</g>
<g>
	<path d="M-3156.053-971.709h-420.499c-9.389,0-17-7.611-17-17s7.611-17,17-17h420.499c9.389,0,17,7.611,17,17
		S-3146.664-971.709-3156.053-971.709z"/>
</g>
<g>
	<path d="M-3282.387-368.021h-294.165c-9.389,0-17-7.611-17-17s7.611-17,17-17h294.165c9.389,0,17,7.611,17,17
		S-3272.998-368.021-3282.387-368.021z"/>
</g>
<g>
	<path d="M-3453.387-368.021c-9.389,0-17-7.611-17-17v-536.979c0-9.389,7.611-17,17-17s17,7.611,17,17v536.979
		C-3436.387-375.632-3443.998-368.021-3453.387-368.021z"/>
</g>
<g>
	<path fill="none" stroke="#000000" stroke-width="34" stroke-linecap="round" stroke-linejoin="round" stroke-miterlimit="10" d="
		M-3453.387-980.654"/>
</g>
<g>
	<path d="M-4613.419-771.265c-9.389,0-17-7.611-17-17v-200.444c0-9.389,7.611-17,17-17h212.563c9.389,0,17,7.611,17,17
		s-7.611,17-17,17h-195.563v183.444C-4596.419-778.876-4604.03-771.265-4613.419-771.265z"/>
</g>
<g>
	<path d="M-4403.69-368.021h-200.117c-9.389,0-17-7.611-17-17s7.611-17,17-17h200.117c9.389,0,17,7.611,17,17
		S-4394.302-368.021-4403.69-368.021z"/>
</g>
<g>
	<path d="M-4483.907-369.102c-9.389,0-17-7.611-17-17V-981.99c0-9.389,7.611-17,17-17s17,7.611,17,17v595.889
		C-4466.907-376.713-4474.519-369.102-4483.907-369.102z"/>
</g>
<g>
	<path d="M-7578.122-365.102c-41.568,0-76.63-14.179-104.212-42.142c-65.763-66.672-64.857-188.573-64.786-193.73
		c0.128-9.309,7.714-16.767,16.994-16.767c0.08,0,0.158,0.001,0.238,0.002c9.388,0.129,16.894,7.844,16.765,17.231
		c-0.014,1.109-0.71,113.006,55.064,169.457c21.24,21.498,47.388,31.948,79.937,31.948c49.117,0,87.722-15.7,114.743-46.666
		c53.337-61.12,50.303-165.842,47.545-201.069l-91.81-17.905v148.641c0,9.389-7.611,17-17,17s-17-7.611-17-17v-169.276
		c0-5.079,2.271-9.892,6.191-13.121s9.079-4.538,14.063-3.564l124.475,24.276c7.132,1.391,12.591,7.161,13.585,14.359
		c0.865,6.257,20.313,154.233-54.349,239.919C-7471.447-384.753-7518.699-365.102-7578.122-365.102z"/>
</g>
<g>
	<path d="M-6349.894-368.019c-1.491,0-2.999-0.197-4.489-0.605c-7.389-2.022-12.512-8.736-12.512-16.396v-595.634
		c0-9.389,7.611-17,17-17s17,7.611,17,17v533.529l99.209-167.635c4.782-8.08,15.209-10.751,23.288-5.972
		c8.08,4.781,10.753,15.208,5.972,23.288l-130.839,221.081C-6338.379-371.101-6343.997-368.019-6349.894-368.019z"/>
</g>
<g>
	<path d="M-3996.21-367.985c-79.423,0.001-155.021-28.108-214.598-80.158c-64.304-56.179-102.251-133.503-106.854-217.729
		c-4.603-84.225,24.694-165.224,82.494-228.074c57.689-62.73,136.887-99.868,223.003-104.574
		c82.187-4.492,162.112,21.398,225.08,72.897c7.268,5.944,8.341,16.654,2.396,23.922c-5.943,7.267-16.653,8.341-23.922,2.396
		c-56.383-46.113-128.008-69.294-201.699-65.267c-77.212,4.219-148.181,37.474-199.832,93.64
		c-51.541,56.045-77.669,128.211-73.571,203.204c4.098,74.994,37.934,143.884,95.274,193.979
		c57.464,50.204,131.644,75.522,208.844,71.309c159.225-8.7,281.873-141.864,273.405-296.845
		c-3.075-56.276-23.065-109.645-57.812-154.334c-5.763-7.412-4.426-18.093,2.986-23.855c7.411-5.763,18.092-4.426,23.855,2.986
		c39.016,50.182,61.465,110.125,64.919,173.349c4.603,84.226-24.694,165.225-82.494,228.074
		c-57.688,62.73-136.887,99.868-223.005,104.574C-3983.914-368.152-3990.074-367.985-3996.21-367.985z"/>
</g>
<g>
	<path d="M-4183.785-503.459c-4.351,0-8.701-1.66-12.021-4.979c-6.64-6.639-6.64-17.402,0-24.041l388.959-388.958
		c6.639-6.639,17.402-6.639,24.041,0c6.64,6.639,6.64,17.403,0,24.042l-388.959,388.958
		C-4175.084-505.119-4179.435-503.459-4183.785-503.459z"/>
</g>
<g>
	<path d="M-3156.053-590.316h-175.196c-9.389,0-17-7.611-17-17s7.611-17,17-17h175.196c95.76,0,173.666-77.906,173.666-173.666
		s-77.906-173.666-173.666-173.666c-9.389,0-17-7.611-17-17s7.611-17,17-17c114.508,0,207.666,93.159,207.666,207.666
		S-3041.545-590.316-3156.053-590.316z"/>
</g>
<g>
	<path d="M-3328.88-592.05c-4.351,0-8.701-1.66-12.021-4.979c-6.64-6.639-6.64-17.402,0-24.041l181.49-181.492
		c6.639-6.639,17.402-6.639,24.041,0c6.64,6.639,6.64,17.403,0,24.042l-181.49,181.491
		C-3320.179-593.71-3324.529-592.05-3328.88-592.05z"/>
</g>
<g>
	<path d="M-1714.177-971.709h-420.499c-9.389,0-17-7.611-17-17s7.611-17,17-17h420.499c9.389,0,17,7.611,17,17
		S-1704.788-971.709-1714.177-971.709z"/>
</g>
<g>
	<path d="M-1840.511-368.021h-294.165c-9.389,0-17-7.611-17-17s7.611-17,17-17h294.165c9.389,0,17,7.611,17,17
		S-1831.122-368.021-1840.511-368.021z"/>
</g>
<g>
	<path d="M-1519.346-368.021h-210.666c-9.389,0-17-7.611-17-17s7.611-17,17-17h210.666c9.389,0,17,7.611,17,17
		S-1509.957-368.021-1519.346-368.021z"/>
</g>
<g>
	<path d="M-2011.511-368.021c-9.389,0-17-7.611-17-17v-536.978c0-9.389,7.611-17,17-17s17,7.611,17,17v536.978
		C-1994.511-375.633-2002.122-368.021-2011.511-368.021z"/>
</g>
<g>
	<path fill="none" stroke="#000000" stroke-width="34" stroke-linecap="round" stroke-linejoin="round" stroke-miterlimit="10" d="
		M-2011.511-980.654"/>
</g>
<g>
	<path d="M-1569.122-369.102c-4.543,0-9.073-1.809-12.421-5.389l-206.874-221.215c-4.625-4.946-5.874-12.166-3.178-18.379
		s8.822-10.232,15.595-10.232h61.823c95.76,0,173.666-77.906,173.666-173.666s-77.906-173.666-173.666-173.666
		c-9.389,0-17-7.611-17-17s7.611-17,17-17c114.508,0,207.666,93.159,207.666,207.666s-93.158,207.666-207.666,207.666h-22.65
		l180.118,192.604c6.412,6.857,6.052,17.615-0.806,24.028C-1560.792-370.619-1564.963-369.102-1569.122-369.102z"/>
</g>
<g>
	<path d="M-2242.039-195.535c-4.351,0-8.701-1.66-12.021-4.979l-361.891-361.891c-6.64-6.639-6.64-17.402,0-24.041
		c6.639-6.639,17.402-6.639,24.041,0l361.891,361.891c6.64,6.639,6.64,17.402,0,24.041
		C-2233.338-197.195-2237.688-195.535-2242.039-195.535z"/>
</g>
<g>
	<path d="M-2420.78-368.021h-250.688c-53.887,0-104.494-22.177-142.499-62.446c-37.751-39.998-58.541-93.111-58.541-149.554v-206.97
		c0-56.443,20.79-109.555,58.541-149.554c38.005-40.269,88.612-62.446,142.499-62.446h245.389c53.887,0,104.494,22.177,142.5,62.446
		c37.751,39.999,58.541,93.111,58.541,149.554v212.719c0,133.146-34.397,157.856-44.94,162.258
		c-6.36,2.656-13.694,1.208-18.569-3.665l-309.263-309.198c-6.64-6.638-6.641-17.402-0.003-24.042
		c6.641-6.64,17.403-6.64,24.042-0.002l296.285,296.223c7.596-14.559,18.448-48.203,18.448-121.574V-786.99
		c0-98.149-74.935-178-167.041-178h-245.389c-92.106,0-167.04,79.851-167.04,178v206.97c0,98.149,74.934,178,167.04,178h250.688
		c9.389,0,17,7.611,17,17S-2411.392-368.021-2420.78-368.021z"/>
</g>
<g>
	<path d="M-1883.59-692.155c-4.351,0-8.701-1.66-12.021-4.979c-6.64-6.639-6.64-17.403,0-24.042l177.147-177.147
		c6.639-6.639,17.402-6.639,24.041,0c6.64,6.639,6.64,17.403,0,24.042l-177.147,177.147
		C-1874.889-693.814-1879.239-692.155-1883.59-692.155z"/>
</g>
<g>
	<path d="M-970.76-367.988h-246.801c-54.15,0-105.012-22.164-143.215-62.41c-37.973-40.004-58.885-93.129-58.885-149.59
		c0-9.389,7.611-17,17-17h139c9.389,0,17,7.611,17,17s-7.611,17-17,17h-121.239c8.107,90.206,80.063,161,167.339,161h246.801
		c88.849,0,161.82-73.375,167.716-165.901l-605.024-203.015c-6.925-2.324-11.592-8.812-11.592-16.117
		c0-56.461,20.912-109.586,58.885-149.59c38.203-40.246,89.063-62.41,143.215-62.41h246.801c54.15,0,105.012,22.165,143.215,62.41
		c9.347,9.847,17.662,20.493,24.885,31.784v-75.827c0-9.389,7.611-17,17-17s17,7.611,17,17v193.633c0,9.389-7.611,17-17,17
		s-17-7.611-17-17c0-98.149-75.409-178-168.1-178h-246.801c-88.849,0-161.82,73.375-167.716,165.902l605.024,203.014
		c6.925,2.324,11.592,8.813,11.592,16.117c0,56.461-20.912,109.586-58.885,149.59C-865.748-390.152-916.609-367.988-970.76-367.988z
		"/>
</g>
<g>
	<path d="M-349.028-369.102h-124.234c-9.389,0-17-7.611-17-17s7.611-17,17-17h107.234v-523.557l-97.582,143.814
		c-4.195,6.183-11.938,8.9-19.072,6.702c-7.14-2.2-12.007-8.802-11.995-16.273l0.291-188.265
		c0.015-9.379,7.623-16.974,16.999-16.974c0.01,0,0.019,0,0.027,0c9.389,0.015,16.988,7.638,16.974,17.026l-0.205,132.78
		l97.496-143.688c4.193-6.178,11.927-8.895,19.061-6.706c7.136,2.193,12.007,8.785,12.007,16.25v595.889
		C-332.028-376.713-339.64-369.102-349.028-369.102z"/>
</g>
<g>
	<path d="M-83.775-781.102c-9.389,0-17-7.611-17-17V-964.99h-581.392v166.889c0,9.389-7.611,17-17,17s-17-7.611-17-17V-981.99
		c0-9.389,7.611-17,17-17h615.392c9.389,0,17,7.611,17,17v183.889C-66.775-788.713-74.387-781.102-83.775-781.102z"/>
</g>
<g>
	<path d="M379.141-365.102H190.34c-43.41,0-83.854-22.773-113.882-64.125C47.621-468.938,31.74-521.455,31.74-577.102V-982.99
		c0-9.389,7.611-17,17-17s17,7.611,17,17v405.889c0,48.526,13.577,93.947,38.229,127.896c23.462,32.31,54.135,50.104,86.37,50.104
		h188.801c32.235,0,62.908-17.794,86.37-50.104c24.652-33.949,38.229-79.37,38.229-127.896V-982.99c0-9.389,7.611-17,17-17
		s17,7.611,17,17v405.889c0,55.646-15.881,108.163-44.718,147.875C462.995-387.875,422.551-365.102,379.141-365.102z"/>
</g>
<g>
	<path d="M176.014-966.648H-30.439c-9.389,0-17-7.611-17-17s7.611-17,17-17h206.453c9.389,0,17,7.611,17,17
		S185.402-966.648,176.014-966.648z"/>
</g>
<g>
	<path d="M585.576-966.648H366.095c-9.389,0-17-7.611-17-17s7.611-17,17-17h219.481c9.389,0,17,7.611,17,17
		S594.965-966.648,585.576-966.648z"/>
</g>
<g>
	<path d="M178.279-378.102c-9.389,0-17-7.611-17-17v-585.553c0-9.389,7.611-17,17-17s17,7.611,17,17v585.553
		C195.279-385.713,187.668-378.102,178.279-378.102z"/>
</g>
<g>
	<path d="M-881.411,817.837c-6.024,0-11.86-3.209-14.944-8.872l-323.381-593.809h-190.018c-9.389,0-17-7.611-17-17s7.611-17,17-17
		h200.117c6.226,0,11.952,3.402,14.93,8.869l328.211,602.678c4.49,8.246,1.446,18.57-6.799,23.061
		C-875.878,817.17-878.664,817.837-881.411,817.837z"/>
</g>
<g>
	<path d="M-1304.215,814.689c-2.748,0.001-5.533-0.667-8.116-2.073c-8.245-4.49-11.289-14.814-6.799-23.061l326.497-599.53
		c2.978-5.467,8.704-8.869,14.93-8.869h183.111c9.389,0,17,7.611,17,17s-7.611,17-17,17h-173.012l-321.667,590.661
		C-1292.354,811.479-1298.191,814.689-1304.215,814.689z"/>
</g>
<g>
	<path d="M-1159.508,814.687h-248.926c-9.389,0-17-7.611-17-17s7.611-17,17-17h238.826l130.946-240.45
		c4.49-8.246,14.815-11.288,23.061-6.799c8.245,4.49,11.289,14.814,6.799,23.061l-135.776,249.319
		C-1147.556,811.284-1153.282,814.687-1159.508,814.687z"/>
</g>
<g>
	<path d="M-794.592,818.845h-183.111c-9.389,0-17-7.611-17-17s7.611-17,17-17h183.111c9.389,0,17,7.611,17,17
		S-785.203,818.845-794.592,818.845z"/>
</g>
<g>
	<path d="M-385.126,605.903c-6.024,0-11.86-3.209-14.944-8.872l-212.244-389.733c-4.49-8.246-1.446-18.57,6.799-23.061
		c8.247-4.491,18.569-1.446,23.061,6.799l212.244,389.733c4.49,8.246,1.446,18.57-6.799,23.061
		C-379.593,605.236-382.379,605.903-385.126,605.903z"/>
</g>
<g>
	<path d="M-501.107,818.845h-183.109c-9.389,0-17-7.611-17-17s7.611-17,17-17h173.01l321.667-590.661
		c4.489-8.246,14.814-11.288,23.061-6.799c8.245,4.49,11.289,14.814,6.799,23.061l-326.497,599.53
		C-489.155,815.442-494.882,818.845-501.107,818.845z"/>
</g>
<g>
	<path d="M-646.961,818.848c-2.756,0-5.55-0.671-8.139-2.086c-8.238-4.504-11.266-14.833-6.763-23.071l329.915-603.495
		c2.971-5.434,8.66-8.822,14.853-8.846l50.793-0.193h197.245c9.389,0,17,7.611,17,17s-7.611,17-17,17h-197.181l-40.691,0.155
		l-325.1,594.688C-635.117,815.648-640.946,818.848-646.961,818.848z"/>
</g>
<g>
	<path d="M-501.107,215.156h-183.109c-9.389,0-17-7.611-17-17s7.611-17,17-17h183.109c9.389,0,17,7.611,17,17
		S-491.719,215.156-501.107,215.156z"/>
</g>
<g>
	<path d="M954.74-365.102c-6.99,0-13.268-4.279-15.823-10.785l-236-600.889c-3.433-8.739,0.869-18.606,9.608-22.038
		c8.738-3.434,18.605,0.87,22.038,9.608L954.74-428.604l220.177-560.601c3.431-8.739,13.297-13.043,22.038-9.608
		c8.739,3.432,13.041,13.299,9.608,22.038l-236,600.889C968.008-369.381,961.73-365.102,954.74-365.102z"/>
</g>
<g>
	<path d="M1020.366-538.672c-6.853,0-13.31-4.174-15.892-10.959l-158.79-417.32l-204.399,0.303c-0.008,0-0.018,0-0.026,0
		c-9.377,0-16.985-7.594-16.999-16.975c-0.014-9.389,7.586-17.012,16.975-17.025l216.139-0.32c0.009,0,0.018,0,0.025,0
		c7.056,0,13.379,4.358,15.889,10.955l162.965,428.292c3.339,8.775-1.068,18.596-9.843,21.935
		C1024.42-539.031,1022.375-538.672,1020.366-538.672z"/>
</g>
<g>
	<path d="M1255.576-966.648h-219.481c-9.389,0-17-7.611-17-17s7.611-17,17-17h219.481c9.389,0,17,7.611,17,17
		S1264.965-966.648,1255.576-966.648z"/>
</g>
<g>
	<path d="M1573.907-365.102h-36.684c-7.818,0-14.628-5.332-16.504-12.922l-148.483-600.889c-2.252-9.115,3.312-18.33,12.426-20.582
		c9.12-2.251,18.33,3.311,20.582,12.425l145.29,587.967h10.354l158.825-588.319c2.446-9.065,11.778-14.43,20.843-11.982
		c9.064,2.447,14.429,11.779,11.981,20.843l-162.218,600.889C1588.317-370.254,1581.59-365.102,1573.907-365.102z"/>
</g>
<g>
	<path d="M1715.311-365.102h-44.938c-7.911,0-14.776-5.457-16.562-13.165l-92.455-399.225c-2.118-9.147,3.579-18.279,12.727-20.397
		c9.147-2.117,18.279,3.58,20.396,12.726l89.406,386.061H1702l145.29-587.967c2.253-9.115,11.465-14.676,20.582-12.425
		c9.114,2.252,14.678,11.467,12.426,20.582l-148.483,600.889C1729.938-370.434,1723.129-365.102,1715.311-365.102z"/>
</g>
<g>
	<path d="M1563.992-966.648h-255.567c-9.389,0-17-7.611-17-17s7.611-17,17-17h255.567c9.389,0,17,7.611,17,17
		S1573.381-966.648,1563.992-966.648z"/>
</g>
<g>
	<path d="M1925.575-966.648h-237.034c-9.389,0-17-7.611-17-17s7.611-17,17-17h237.034c9.389,0,17,7.611,17,17
		S1934.964-966.648,1925.575-966.648z"/>
</g>
<g>
	<path d="M633.92,814.224h-617c-9.389,0-17-7.61-17-16.999l-0.004-102.325c0-4.418,1.72-8.663,4.795-11.835l458.171-472.529H33.92
		V321.25c0,9.389-7.611,17-17,17s-17-7.611-17-17V193.535c0-9.389,7.611-17,17-17h486.125c6.828,0,12.994,4.085,15.655,10.373
		c2.662,6.288,1.303,13.559-3.45,18.461L33.916,701.787l0.003,78.437H616.92V611.5c0-9.389,7.611-17,17-17s17,7.611,17,17v185.724
		C650.92,806.612,643.309,814.224,633.92,814.224z"/>
</g>
<g>
	<path d="M201.22,814.224c-9.367,0-16.973-7.579-16.999-16.952l-0.287-102.325c-0.012-4.319,1.62-8.48,4.564-11.64l385.042-413.07
		c6.401-6.866,17.159-7.245,24.027-0.844c6.867,6.402,7.245,17.159,0.844,24.027L217.952,701.573l0.269,95.603
		c0.026,9.389-7.563,17.021-16.952,17.048C201.252,814.224,201.235,814.224,201.22,814.224z"/>
</g>
</svg>
